<svg height="454" viewBox="0 0 485 454" width="485" xmlns="http://www.w3.org/2000/svg"><path d="m448.433594 1.06179301c11.499014 0 49.410156 6.88742574 30.566406 27.27023819-18.84375 20.3828126-39.26982 17.9347752-59.210937 52.3495891-29.460938 50.8443267-54.361381 181.7473377-56.735023 199.3260327-4.596918 34.004137-12.080873 64.663604-25.263717 88.83008-13.627501 24.985717-32.509234 43.548406-56.707498 56.331271-48.523265 25.631179-136.618691 28.167892-136.618691 28.167892h-111.7258527c-55.1992188 0-22.609375-28.372052 8.4531249-50.696271 10.9713275-7.884952 29.9492188-29.753906 44.4960938-49.367187 14.546875-19.613282 52.025179-232.435476 58.776634-275.8394419-19.186763-.9885055-51.5092803-1.1555131-68.7219465 3.2476242-18.3490074 4.6965295-75.7421875 32.4587747-75.7421875 16.6470813 11.8918409-31.4719378 35.125-70.3424665 55.4335938-83.3046875 20.3085937-12.96222109 41.7746497-12.19037435 52.4270412-12.96222109 32.691822-2.36744802 340.572959 0 340.572959 0zm-139.018555 128.37765999c12.855469-27.092773 16.831055-48.8782749 0-48.8782749-4.954835 0-36.660218.3423486-54.035016 3.8993747s-57.329242 247.3011662-74.505023 270.0160102c-17.175781 22.714843-13.514827 29.171874-11.496094 29.171874 45.710938 0 64.865876-17.163528 75.433497-35.953834 10.56762-18.790306 58.017848-204.377774 64.602636-218.25515z"/></svg>